# xmcd CD database file
#
# Track frame offsets:
#	183
#	12788
#	26845
#	48088
#	65275
#	77630
#	105498
#	120368
#	138565
#
# Disc length: 2141 seconds
#
# Revision: 0
# Processed by: cddbd v1.4PL0 Copyright (c) Steve Scherf et al.
# Submitted via: CDex 1.50Beta7
#
DISCID=66085b09
DTITLE=ray barreto - fiesta en el barrio
DYEAR=1996
DGENRE=Salsa
TTITLE0=fiesta en el barrio
TTITLE1=viva maria
TTITLE2=bilongo
TTITLE3=salsa y dulzura
TTITLE4=que han hecho del sol
TTITLE5=trompeta y trombon
TTITLE6=margie
TTITLE7=yo soy la candela
TTITLE8=fuego y pa'lante
EXTD=YEAR: 1996
EXTT0=
EXTT1=
EXTT2=
EXTT3=
EXTT4=
EXTT5=
EXTT6=
EXTT7=
EXTT8=
PLAYORDER=
